<?xml version="1.0" encoding="utf-8"?>
<!-- Generator: Adobe Illustrator 24.1.2, SVG Export Plug-In . SVG Version: 6.00 Build 0)  -->
<svg version="1.1" id="Layer_2_1_" xmlns="http://www.w3.org/2000/svg" xmlns:xlink="http://www.w3.org/1999/xlink" x="0px" y="0px"
	 viewBox="0 0 1519 2160" style="enable-background:new 0 0 1519 2160;" xml:space="preserve">
<style type="text/css">
	.st0{fill:none;stroke:#FF0000;stroke-miterlimit:10;}
</style>
<path id="clip" class="st0" d="M1442.4,66.3v2023H75.4l1-774c-8.1-50.4,21.2-97.1,22.9-148.2c0.2-6.2-0.1-12.7,2.9-18
	c6.1-11,21.5-11.4,33.9-9.9c46.4,5.7,95.2,20.9,123.4,58.2c11.6,15.3,19,33.5,31,48.5c11.9,15,30.9,27.1,49.6,22.7
	c25.1-5.8,35.4-38.1,28.7-62.9s-24.8-44.8-39.1-66.2c-14.3-21.4-25.3-48.6-15.9-72.6c8.3-21,29.6-33.2,46.9-47.7
	c17.4-14.4,32.6-37.9,23.2-58.5c-3.3-7.2-9.3-12.8-13.3-19.6c-14.3-24.2-1.4-54.9,13.1-79c4.4-7.3,8.8-17.4,2.9-23.6
	c-2.4-2.5-6-3.6-9.4-4.4c-24.3-5.6-49.9-3.6-74.2-9.2c-24.3-5.7-49.1-22.7-51.5-47.5c-2.9-29.9,26.3-52.3,37.4-80.1
	c1.6-4,2.8-8.3,2.1-12.5c-1.9-11.2-15.3-15.6-26.3-18c-46.1-10.1-97.4-29.6-113.4-74c-13.1-36.5,0.5-84-27.7-110.7
	c-4.6-4.3-10.1-7.8-13.9-12.9c-18.7-24.9,16.7-57.5,14.6-88.5c-1.3-20.3-18.2-35.4-29.6-52.3C67.4,288,76,224.9,117.6,199.3
	c26.8-16.5,63.5-15.1,89,3.3s38.2,52.9,30.9,83.5c45.7,7.7,90.6,20.2,133.8,37.2c4.6-29.9,16-58.7,33-83.7
	c8-11.7,17.3-22.8,21.8-36.1c10.6-31.2-6.1-69.4,12.5-96.6c19.5-28.4,61.8-24,95.7-17.4c33.8,6.6,77.4,7.5,93.2-23.1h814.9V66.3z"/>
</svg>
